<?xml version="1.0" encoding="UTF-8" standalone="no"?>
<svg
   xmlns:dc="http://purl.org/dc/elements/1.1/"
   xmlns:cc="http://creativecommons.org/ns#"
   xmlns:rdf="http://www.w3.org/1999/02/22-rdf-syntax-ns#"
   xmlns:svg="http://www.w3.org/2000/svg"
   xmlns="http://www.w3.org/2000/svg"
   xmlns:sodipodi="http://sodipodi.sourceforge.net/DTD/sodipodi-0.dtd"
   xmlns:inkscape="http://www.inkscape.org/namespaces/inkscape"
   viewBox="0 0 16 16"
   id="svg2"
   version="1.1"
   inkscape:version="0.91 r13725"
   sodipodi:docname="favicon.svg"
   width="16"
   height="16"
   inkscape:export-filename="/home/lip/grafica/transmission-soft-theme/web/images/logo-soft.png"
   inkscape:export-xdpi="1125"
   inkscape:export-ydpi="1125">
  <metadata
     id="metadata67">
    <rdf:RDF>
      <cc:Work
         rdf:about="">
        <dc:format>image/svg+xml</dc:format>
        <dc:type
           rdf:resource="http://purl.org/dc/dcmitype/StillImage" />
        <dc:title />
      </cc:Work>
    </rdf:RDF>
  </metadata>
  <sodipodi:namedview
     pagecolor="#ffffff"
     bordercolor="#666666"
     borderopacity="1"
     objecttolerance="10"
     gridtolerance="10"
     guidetolerance="10"
     inkscape:pageopacity="0"
     inkscape:pageshadow="2"
     inkscape:window-width="1366"
     inkscape:window-height="713"
     id="namedview65"
     showgrid="false"
     inkscape:zoom="33.13696"
     inkscape:cx="7.06841"
     inkscape:cy="7.8220855"
     inkscape:window-x="0"
     inkscape:window-y="27"
     inkscape:window-maximized="1"
     inkscape:current-layer="svg2" />
  <defs
     id="defs4">
    <linearGradient
       id="linearGradient3764"
       x1="1"
       x2="47"
       gradientUnits="userSpaceOnUse"
       gradientTransform="matrix(0,-0.32350004,0.32350004,0,0.33392274,15.718819)">
      <stop
         style="stop-color:#d6262e;stop-opacity:1"
         id="stop7" />
      <stop
         offset="1"
         style="stop-color:#db363f;stop-opacity:1"
         id="stop9" />
    </linearGradient>
    <clipPath
       id="clipPath-522519452">
      <g
         transform="translate(0,-1004.3622)"
         id="g12">
        <path
           d="m -24,13 c 0,1.105 -0.672,2 -1.5,2 -0.828,0 -1.5,-0.895 -1.5,-2 0,-1.105 0.672,-2 1.5,-2 0.828,0 1.5,0.895 1.5,2 z"
           transform="matrix(15.333333,0,0,11.5,414.99999,878.8622)"
           style="fill:#1890d0"
           id="path14"
           inkscape:connector-curvature="0" />
      </g>
    </clipPath>
    <clipPath
       id="clipPath-536897967">
      <g
         transform="translate(0,-1004.3622)"
         id="g17">
        <path
           d="m -24,13 c 0,1.105 -0.672,2 -1.5,2 -0.828,0 -1.5,-0.895 -1.5,-2 0,-1.105 0.672,-2 1.5,-2 0.828,0 1.5,0.895 1.5,2 z"
           transform="matrix(15.333333,0,0,11.5,414.99999,878.8622)"
           style="fill:#1890d0"
           id="path19"
           inkscape:connector-curvature="0" />
      </g>
    </clipPath>
  </defs>
  <g
     id="g29"
     transform="matrix(0.32350004,0,0,0.32350004,0.33392323,0.19081802)">
    <path
       style="fill:#d92e37;fill-opacity:1"
       d="M 8.0976562 0.51367188 C 3.9882352 0.51367188 0.65820312 3.8456571 0.65820312 7.9550781 C 0.65820312 12.064499 3.9882352 15.394531 8.0976562 15.394531 C 12.207077 15.394531 15.539062 12.064499 15.539062 7.9550781 C 15.539062 3.8456571 12.207077 0.51367188 8.0976562 0.51367188 z M 6.40625 3.75 L 9.7890625 3.75 C 10.105122 3.75 10.363281 3.966517 10.363281 4.234375 C 10.363281 4.502233 10.105122 4.7207031 9.7890625 4.7207031 L 8.7441406 4.7207031 L 8.7441406 6.6601562 L 10.363281 6.6601562 C 10.686781 6.6601563 10.73408 6.823919 10.791016 6.984375 L 11.875 11.189453 C 11.910262 11.349909 11.97975 11.513672 11.65625 11.513672 L 4.5390625 11.513672 C 4.2155625 11.513672 4.278581 11.359938 4.3203125 11.189453 L 5.4042969 6.984375 C 5.4699674 6.7821875 5.5104843 6.6601562 5.8339844 6.6601562 L 7.4511719 6.6601562 L 7.4511719 4.7207031 L 6.40625 4.7207031 C 6.08922 4.7207031 5.8339844 4.502233 5.8339844 4.234375 C 5.8339844 3.966517 6.08922 3.75 6.40625 3.75 z M 7.4511719 6.6601562 L 7.4511719 9.2480469 L 6.4804688 9.2480469 L 8.0976562 10.542969 L 9.7148438 9.2480469 L 8.7441406 9.2480469 L 8.7441406 6.6601562 L 7.4511719 6.6601562 z "
       transform="matrix(3.0911897,0,0,3.0911897,-1.0322201,-0.5898547)"
       id="path31" />
  </g>
  <g
     id="g33"
     transform="matrix(0.32350004,0,0,0.32350004,0.33392323,0.19081802)">
    <g
       id="g35"
       clip-path="url(#clipPath-522519452)">
      <g
         transform="translate(1,1)"
         id="g37">
        <g
           style="opacity:0.1"
           id="g39">
          <!-- color: #db363f -->
          <g
             id="g41" />
        </g>
      </g>
    </g>
  </g>
  <g
     id="g49"
     transform="matrix(0.32350004,0,0,0.32350004,0.33392323,0.19081802)">
    <g
       id="g51"
       clip-path="url(#clipPath-536897967)">
      <!-- color: #db363f -->
      <g
         id="g53" />
    </g>
  </g>
</svg>
