<?xml version="1.0" encoding="UTF-8" standalone="no"?>
<!-- Created with Inkscape (http://www.inkscape.org/) -->

<svg
   xmlns:dc="http://purl.org/dc/elements/1.1/"
   xmlns:cc="http://creativecommons.org/ns#"
   xmlns:rdf="http://www.w3.org/1999/02/22-rdf-syntax-ns#"
   xmlns:svg="http://www.w3.org/2000/svg"
   xmlns="http://www.w3.org/2000/svg"
   xmlns:sodipodi="http://sodipodi.sourceforge.net/DTD/sodipodi-0.dtd"
   xmlns:inkscape="http://www.inkscape.org/namespaces/inkscape"
   id="svg2"
   version="1.1"
   inkscape:version="0.91 r13725"
   width="20"
   height="20"
   viewBox="0 0 20 20"
   sodipodi:docname="inspector-trackers.svg"
   inkscape:export-filename="/home/lip/grafica/transmission-soft-theme/web/style/transmission/images/soft-dark-theme/inspector-trackers.png"
   inkscape:export-xdpi="90"
   inkscape:export-ydpi="90">
  <metadata
     id="metadata8">
    <rdf:RDF>
      <cc:Work
         rdf:about="">
        <dc:format>image/svg+xml</dc:format>
        <dc:type
           rdf:resource="http://purl.org/dc/dcmitype/StillImage" />
        <dc:title />
      </cc:Work>
    </rdf:RDF>
  </metadata>
  <defs
     id="defs6" />
  <sodipodi:namedview
     pagecolor="#ffffff"
     bordercolor="#666666"
     borderopacity="1"
     objecttolerance="10"
     gridtolerance="10"
     guidetolerance="10"
     inkscape:pageopacity="0"
     inkscape:pageshadow="2"
     inkscape:window-width="1366"
     inkscape:window-height="713"
     id="namedview4"
     showgrid="true"
     inkscape:snap-bbox="true"
     inkscape:zoom="11.818454"
     inkscape:cx="2.3564517"
     inkscape:cy="5.5865391"
     inkscape:window-x="0"
     inkscape:window-y="27"
     inkscape:window-maximized="1"
     inkscape:current-layer="svg2">
    <inkscape:grid
       type="xygrid"
       id="grid4148" />
  </sodipodi:namedview>
  <path
     style="fill:#cbcbcb;fill-rule:evenodd;stroke:none;stroke-width:1px;stroke-linecap:butt;stroke-linejoin:miter;stroke-opacity:1;fill-opacity:1"
     d="M 8.7011719 7.5996094 L 4 17 L 6 17 L 10 9 L 14 17 L 16 17 L 11.308594 7.6171875 A 2.0962296 2.0962296 0 0 1 10.015625 8.0644531 A 2.0962296 2.0962296 0 0 1 8.7011719 7.5996094 z "
     id="path4150" />
  <path
     style="opacity:1;fill:#cbcbcb;fill-opacity:1;fill-rule:nonzero;stroke:none;stroke-width:0.5;stroke-linecap:butt;stroke-linejoin:round;stroke-miterlimit:4;stroke-dasharray:none;stroke-dashoffset:100;stroke-opacity:1"
     d="M 7.7386816,10.434182 12,9.6264708 12,10.114355 7.7386816,11.349677 Z"
     id="rect4152"
     inkscape:connector-curvature="0"
     sodipodi:nodetypes="ccccc" />
  <path
     style="opacity:1;fill:#cbcbcb;fill-opacity:1;fill-rule:nonzero;stroke:none;stroke-width:0.5;stroke-linecap:butt;stroke-linejoin:round;stroke-miterlimit:4;stroke-dasharray:none;stroke-dashoffset:100;stroke-opacity:1"
     d="m 6.6448286,12.647614 6.4490244,-0.807711 0,0.487885 -6.4490244,1.520397 z"
     id="rect4154"
     inkscape:connector-curvature="0"
     sodipodi:nodetypes="ccccc" />
  <path
     style="opacity:1;fill:#cbcbcb;fill-opacity:1;fill-rule:nonzero;stroke:none;stroke-width:0.5;stroke-linecap:butt;stroke-linejoin:round;stroke-miterlimit:4;stroke-dasharray:none;stroke-dashoffset:100;stroke-opacity:1"
     d="m 5.5509756,14.834368 8.6367304,-0.807711 0,0.559152 -8.6367304,1.449129 z"
     id="rect4156"
     inkscape:connector-curvature="0"
     sodipodi:nodetypes="ccccc" />
  <path
     style="opacity:1;fill:#cbcbcb;fill-opacity:1;fill-rule:nonzero;stroke:none;stroke-width:0.5;stroke-linecap:butt;stroke-linejoin:round;stroke-miterlimit:4;stroke-dasharray:none;stroke-dashoffset:100;stroke-opacity:1"
     d="M 12.112423,5.1948659 A 2.0962296,2.0962296 0 0 1 10.016193,7.2910954 2.0962296,2.0962296 0 0 1 7.9199638,5.1948659 2.0962296,2.0962296 0 0 1 10.016193,3.0986363 2.0962296,2.0962296 0 0 1 12.112423,5.1948659 Z"
     id="path4158"
     inkscape:connector-curvature="0" />
  <path
     style="color:#000000;font-style:normal;font-variant:normal;font-weight:normal;font-stretch:normal;font-size:medium;line-height:normal;font-family:sans-serif;text-indent:0;text-align:start;text-decoration:none;text-decoration-line:none;text-decoration-style:solid;text-decoration-color:#000000;letter-spacing:normal;word-spacing:normal;text-transform:none;direction:ltr;block-progression:tb;writing-mode:lr-tb;baseline-shift:baseline;text-anchor:start;white-space:normal;clip-rule:nonzero;display:inline;overflow:visible;visibility:visible;opacity:1;isolation:auto;mix-blend-mode:normal;color-interpolation:sRGB;color-interpolation-filters:linearRGB;solid-color:#000000;solid-opacity:1;fill:#cbcbcb;fill-opacity:1;fill-rule:nonzero;stroke:none;stroke-width:0.94603801;stroke-linecap:butt;stroke-linejoin:round;stroke-miterlimit:4;stroke-dasharray:none;stroke-dashoffset:100;stroke-opacity:1;color-rendering:auto;image-rendering:auto;shape-rendering:auto;text-rendering:auto;enable-background:accumulate"
     d="m 17.080078,3.6601562 c -0.257978,-0.00309 -0.470855,0.201102 -0.478516,0.4589844 -0.07681,2.4811934 -1.444498,4.604332 -3.427734,5.71875 L 13.818359,11.125 c 2.233882,-1.3419656 3.738539,-3.8143264 3.740235,-6.6425781 l 0,-0.00391 C 17.557394,4.3544483 17.553995,4.2293325 17.546875,4.1054688 17.532319,3.8574995 17.328458,3.6630212 17.080078,3.6601562 Z M 2.8984375,3.7714844 c -0.2414408,0.013901 -0.433521,0.2076657 -0.4453125,0.4492187 -0.0054,0.08166 -0.0088,0.162346 -0.011719,0.2441407 -1.089e-4,0.00586 -1.089e-4,0.011719 0,0.017578 0.00166,2.8282516 1.5063422,5.3006124 3.7402344,6.6425781 L 6.8261719,9.8378906 C 4.8736259,8.7416883 3.513238,6.6684209 3.3984375,4.2304688 c -0.0075,-0.2665793 -0.2337538,-0.4742734 -0.5,-0.4589844 z M 14.404297,4.5605469 C 14.150812,4.56163 13.94323,4.7623214 13.933594,5.015625 13.892686,6.1216478 13.173801,7.107078 12.09375,7.6757812 l 0.539062,1.0800782 c 1.343931,-0.742687 2.253848,-2.0340645 2.253907,-3.5429688 l 0,-0.00781 C 14.885707,5.1362017 14.883847,5.0687338 14.878906,5 14.861198,4.751348 14.653575,4.5591042 14.404297,4.5605469 Z m -8.8066408,0.0625 c -0.2465003,-0.00175 -0.4530293,0.1860805 -0.4746093,0.4316406 -0.0038,0.045572 -0.00757,0.091053 -0.00977,0.1367187 -1.626e-4,0.00716 -1.626e-4,0.014324 0,0.021484 6.18e-5,1.5089047 0.9099754,2.8002818 2.2539063,3.5429688 L 7.90625,7.6777344 C 6.8420476,7.1181753 6.1273965,6.1533481 6.0664062,5.0664062 6.0508117,4.8184627 5.8460833,4.6248237 5.5976562,4.6230469 Z"
     id="path4167"
     inkscape:connector-curvature="0"
     sodipodi:nodetypes="cccccccccccccccccccccccccccccccc" />
  <path
     sodipodi:nodetypes="ccccc"
     inkscape:connector-curvature="0"
     id="path4142"
     d="m 12.47512,11.151358 -4.2613144,-0.807711 0,0.487884 4.2613144,1.235322 z"
     style="opacity:1;fill:#cbcbcb;fill-opacity:1;fill-rule:nonzero;stroke:none;stroke-width:0.5;stroke-linecap:butt;stroke-linejoin:round;stroke-miterlimit:4;stroke-dasharray:none;stroke-dashoffset:100;stroke-opacity:1" />
  <path
     sodipodi:nodetypes="ccccc"
     inkscape:connector-curvature="0"
     id="path4146"
     d="m 14.662826,15.551544 -7.7770247,-2.142537 0,0.559152 7.7770247,2.783955 z"
     style="opacity:1;fill:#cbcbcb;fill-opacity:1;fill-rule:nonzero;stroke:none;stroke-width:0.5;stroke-linecap:butt;stroke-linejoin:round;stroke-miterlimit:4;stroke-dasharray:none;stroke-dashoffset:100;stroke-opacity:1" />
</svg>
