<?xml version="1.0" encoding="UTF-8" standalone="no"?>
<!-- Created with Inkscape (http://www.inkscape.org/) -->

<svg
   xmlns:dc="http://purl.org/dc/elements/1.1/"
   xmlns:cc="http://creativecommons.org/ns#"
   xmlns:rdf="http://www.w3.org/1999/02/22-rdf-syntax-ns#"
   xmlns:svg="http://www.w3.org/2000/svg"
   xmlns="http://www.w3.org/2000/svg"
   xmlns:sodipodi="http://sodipodi.sourceforge.net/DTD/sodipodi-0.dtd"
   xmlns:inkscape="http://www.inkscape.org/namespaces/inkscape"
   id="svg2"
   version="1.1"
   inkscape:version="0.91 r13725"
   width="20"
   height="20"
   viewBox="0 0 20 20"
   sodipodi:docname="inspector-peers.svg"
   inkscape:export-filename="/home/lip/grafica/transmission-soft-theme/web/style/transmission/images/soft-dark-theme/inspector-peers.png"
   inkscape:export-xdpi="90"
   inkscape:export-ydpi="90">
  <metadata
     id="metadata8">
    <rdf:RDF>
      <cc:Work
         rdf:about="">
        <dc:format>image/svg+xml</dc:format>
        <dc:type
           rdf:resource="http://purl.org/dc/dcmitype/StillImage" />
        <dc:title />
      </cc:Work>
    </rdf:RDF>
  </metadata>
  <defs
     id="defs6" />
  <sodipodi:namedview
     pagecolor="#ffffff"
     bordercolor="#666666"
     borderopacity="1"
     objecttolerance="10"
     gridtolerance="10"
     guidetolerance="10"
     inkscape:pageopacity="0"
     inkscape:pageshadow="2"
     inkscape:window-width="1366"
     inkscape:window-height="713"
     id="namedview4"
     showgrid="false"
     inkscape:zoom="16.057789"
     inkscape:cx="-6.3116763"
     inkscape:cy="12.596256"
     inkscape:window-x="0"
     inkscape:window-y="27"
     inkscape:window-maximized="1"
     inkscape:current-layer="svg2" />
  <path
     style="fill:#cbcbcb;fill-opacity:1"
     d="M 5.6437795,17.445884 C 4.538365,17.525318 4.6392569,16.377526 4.9507281,15.657872 5.4293468,14.585344 6.6184355,14.13452 7.5295037,13.507242 8.3244934,13.229336 8.7426068,12.296333 8.0661226,11.657088 7.419547,10.819833 6.97966,9.7714949 7.1876776,8.697114 7.2457752,7.9460577 7.6475443,7.3016113 8.2689572,6.8767204 9.085818,6.2262217 10.250027,6.3081336 11.203184,6.553456 c 1.115094,0.4020945 1.791409,1.5980257 1.683126,2.7612634 0.02375,0.8886256 -0.360024,1.7224376 -0.93066,2.3842336 -0.79124,0.626577 -0.202533,1.553107 0.550772,1.846337 1.062746,0.66958 2.437478,1.245436 2.743196,2.604903 0.457238,0.931579 -0.535179,1.484934 -1.356838,1.339405 -2.717124,0.07586 -5.4416279,0.118509 -8.1566524,-0.03039 l -0.092349,-0.01329 z M 2.0539175,13.387402 C 0.93299508,13.378104 1.1307581,12.035023 1.5769349,11.391875 2.2314546,10.252041 3.5775943,9.8794666 4.5563407,9.101751 5.441991,8.548393 4.6645776,7.6791616 4.2329228,7.1238417 3.5191436,6.1654465 3.5343023,4.824318 3.9296007,3.744289 4.3465984,2.8611352 5.306681,2.2607477 6.2925862,2.4088828 7.1398161,2.35264 8.0688373,2.4060937 8.6501565,3.1187249 9.253068,3.6680156 9.3572233,4.4963679 9.4153533,5.2630895 8.4397214,5.4566179 7.4563125,5.8399787 6.8428904,6.6659181 6.3285893,7.2490225 6.0361493,8.022954 6.0696329,8.8039794 c -0.018223,0.8237172 -0.054741,1.6787526 0.3786936,2.4090196 0.2537826,0.537166 1.1407436,1.432941 0.0484,1.622584 -0.7215098,0.625283 -1.6430281,0.643289 -2.55319,0.618069 -0.6301893,4.64e-4 -1.2618291,-0.0063 -1.8896243,-0.06625 z M 14.356714,13.37722 C 13.819563,12.916972 12.453721,12.566244 13.294452,11.702202 14.358124,10.153963 14.30784,7.906494 13.028501,6.4944334 12.46692,5.8189161 11.624204,5.5112707 10.813872,5.2567025 10.304676,4.7353402 10.866292,3.8607211 11.17116,3.3497204 c 0.546479,-0.7336938 1.459615,-1.0543969 2.351921,-0.9954579 1.086077,-0.1145541 2.15085,0.508402 2.632323,1.4792134 0.39205,0.9044768 0.344146,2.0064563 -0.106651,2.8818378 -0.231703,0.5987559 -1.053784,1.1224842 -0.949197,1.875502 0.355698,0.7038267 1.181722,0.9866814 1.796078,1.4205263 0.856816,0.434127 1.718693,1.121119 1.835679,2.13983 0.482216,0.940721 -0.571252,1.318965 -1.355601,1.266064 -0.999236,-0.06739 -2.03159,0.137903 -3.018998,-0.04002 z"
     id="path4153"
     inkscape:connector-curvature="0"
     sodipodi:nodetypes="ccccccccccccccccccccccccccccccccccccccccsc" />
</svg>
